<?xml version="1.0" encoding="UTF-8" standalone="no"?>
<!-- Generator: Adobe Illustrator 19.1.0, SVG Export Plug-In . SVG Version: 6.00 Build 0)  -->

<svg
   version="1.1"
   id="Calque_1"
   x="0px"
   y="0px"
   viewBox="0 0 209.26524 35"
   enable-background="new 0 0 155.5 35"
   xml:space="preserve"
   inkscape:version="1.4.3 (fcd0343856, 2026-01-01)"
   sodipodi:docname="deploy-on-scalingo.svg"
   width="209.26524"
   height="35"
   xmlns:inkscape="http://www.inkscape.org/namespaces/inkscape"
   xmlns:sodipodi="http://sodipodi.sourceforge.net/DTD/sodipodi-0.dtd"
   xmlns="http://www.w3.org/2000/svg"
   xmlns:svg="http://www.w3.org/2000/svg"
   xmlns:rdf="http://www.w3.org/1999/02/22-rdf-syntax-ns#"
   xmlns:cc="http://creativecommons.org/ns#"
   xmlns:dc="http://purl.org/dc/elements/1.1/"><metadata
     id="metadata57"><rdf:RDF><cc:Work
         rdf:about=""><dc:format>image/svg+xml</dc:format><dc:type
           rdf:resource="http://purl.org/dc/dcmitype/StillImage" /></cc:Work></rdf:RDF></metadata><defs
     id="defs55" /><sodipodi:namedview
     pagecolor="#ffffff"
     bordercolor="#666666"
     borderopacity="1"
     objecttolerance="10"
     gridtolerance="10"
     guidetolerance="10"
     inkscape:pageopacity="0"
     inkscape:pageshadow="2"
     inkscape:window-width="2196"
     inkscape:window-height="1427"
     id="namedview53"
     showgrid="false"
     inkscape:zoom="4.6126459"
     inkscape:cx="116.96107"
     inkscape:cy="30.134548"
     inkscape:window-x="60"
     inkscape:window-y="40"
     inkscape:window-maximized="1"
     inkscape:current-layer="Calque_1"
     fit-margin-top="0"
     fit-margin-left="0"
     fit-margin-right="0"
     fit-margin-bottom="0"
     inkscape:showpageshadow="2"
     inkscape:pagecheckerboard="0"
     inkscape:deskcolor="#d1d1d1" /><path
     d="M 203.88221,35 H 5.3830286 C 2.4223628,35 0,33.2 0,31 V 4 C 0,1.8 2.4223628,0 5.3830286,0 H 203.88221 c 2.96066,0 5.38303,1.8 5.38303,4 v 27 c 0,2.2 -2.42237,4 -5.38303,4 z"
     id="path3"
     inkscape:connector-curvature="0"
     style="fill:#444444;stroke-width:1.16007" /><path
     d="M 4,0 C 1.8,0 0,1.8 0,4 v 27 c 0,2.2 1.8,4 4,4 H 35 V 0 Z"
     id="path5"
     inkscape:connector-curvature="0"
     style="fill:#2b2b2b" /><g
     id="g1"><rect
       style="fill:#ffffff;fill-opacity:1;stroke:none;stroke-width:2.75687"
       id="rect3"
       width="25.868702"
       height="23.2141"
       x="4.9153171"
       y="6.4233127" /><path
       fill-rule="evenodd"
       clip-rule="evenodd"
       d="m 4.9153172,6.4233125 c -0.12743,0.37221 -0.12743,0.83426 -0.12743,1.75835 v 1.9723705 c 0,0.18477 0,0.27727 0.02549,0.35167 0.04732,0.1382 0.15589,0.2468 0.29411,0.2941 0.07444,0.0255 0.16685,0.0255 0.35167,0.0255 H 30.116587 c 0.1848,0 0.2773,0 0.3517,-0.0255 0.1382,-0.0473 0.2468,-0.1559 0.2941,-0.2941 0.0255,-0.0744 0.0255,-0.1669 0.0255,-0.35167 V 8.1816625 c 0,-0.92409 0,-1.38614 -0.1274,-1.75835 -0.2367,-0.69109 -0.7795,-1.23396 -1.4706,-1.47058 -0.3722,-0.12743 -0.8343,-0.12743 -1.7584,-0.12743 H 8.1442472 c -0.92409,0 -1.38614,0 -1.75835,0.12743 -0.69109,0.23662 -1.23396,0.77949 -1.47058,1.47058 z m 3.12257,2.70198 c 0.69036,0 1.25,-0.55965 1.25,-1.25 0,-0.69036 -0.55964,-1.25 -1.25,-1.25 -0.69036,0 -1.25,0.55964 -1.25,1.25 0,0.69035 0.55964,1.25 1.25,1.25 z m 5.2499998,-1.25 c 0,0.69035 -0.5596,1.25 -1.25,1.25 -0.69036,0 -1.25,-0.55965 -1.25,-1.25 0,-0.69036 0.55964,-1.25 1.25,-1.25 0.6904,0 1.25,0.55964 1.25,1.25 z m 2.75,1.25 c 0.6904,0 1.25,-0.55965 1.25,-1.25 0,-0.69036 -0.5596,-1.25 -1.25,-1.25 -0.6904,0 -1.25,0.55964 -1.25,1.25 0,0.69035 0.5596,1.25 1.25,1.25 z"
       fill="#d3343f"
       id="path1" /><path
       d="m 4.7878872,13.296603 c 0,-0.1848 0,-0.2772 0.02549,-0.3516 0.04732,-0.1383 0.15589,-0.2468 0.29411,-0.2942 0.07444,-0.0255 0.16685,-0.0255 0.35167,-0.0255 H 30.116587 c 0.1848,0 0.2773,0 0.3517,0.0255 0.1382,0.0474 0.2468,0.1559 0.2941,0.2942 0.0255,0.0744 0.0255,0.1668 0.0255,0.3516 v 7.852 c 0,0.1701 0,0.2552 -0.0241,0.2998 -0.0453,0.0836 -0.1432,0.1238 -0.2342,0.0961 -0.0484,-0.0148 -0.1082,-0.0753 -0.2278,-0.1964 l -4.434,-4.4902 c -0.3982,-0.4073 -0.9791,-0.7326 -1.7005,-0.7326 -0.6055,0 -1.1711,0.2245 -1.6113,0.6333 l -0.0119,0.0111 -0.0118,0.0113 c -0.5149,0.4958 -0.7028,1.1235 -0.715,1.6723 l -0.1646,8.7541 c -0.0022,0.1153 -0.0032,0.1729 -0.0199,0.2193 -0.031,0.0862 -0.0996,0.1535 -0.1863,0.1829 -0.0467,0.0157 -0.1044,0.0157 -0.2197,0.0157 H 8.1442472 c -0.92409,0 -1.38614,0 -1.75835,-0.1274 -0.69109,-0.2366 -1.23396,-0.7795 -1.47058,-1.4706 -0.12743,-0.3722 -0.12743,-0.8342 -0.12743,-1.7583 z"
       fill="#2020ae"
       id="path2" /><path
       d="m 29.395987,28.838003 c 0.0586,-0.1522 0.0508,-0.3142 -0.0234,-0.486 l -1.3932,-3.2895 2.1717,0.1289 c 0.1912,0.0117 0.3435,-0.0371 0.4567,-0.1464 0.1132,-0.1093 0.1717,-0.244 0.1756,-0.404 0.0078,-0.16 -0.0566,-0.3064 -0.1932,-0.4391 l -6.0072,-6.0833 c -0.1249,-0.1289 -0.2635,-0.1933 -0.4157,-0.1933 -0.1484,0 -0.2772,0.0508 -0.3865,0.1523 -0.1054,0.1015 -0.16,0.24 -0.1639,0.4157 l -0.1288,8.5073 c -0.0039,0.199 0.0527,0.3532 0.1698,0.4625 0.121,0.1093 0.2635,0.162 0.4274,0.1581 0.1639,-0.0039 0.3103,-0.0781 0.4391,-0.2225 l 1.3482,-1.5191 1.3103,3.3741 c 0.0702,0.1796 0.1776,0.2947 0.322,0.3455 0.1483,0.0546 0.3005,0.0507 0.4567,-0.0118 l 1.1007,-0.4274 c 0.1678,-0.0624 0.2791,-0.1698 0.3337,-0.322 z"
       fill="#2020ae"
       id="path3-6" /></g><text
     xml:space="preserve"
     style="font-style:normal;font-variant:normal;font-weight:bold;font-stretch:normal;font-size:12px;line-height:1.25;font-family:'Gill Sans MT';-inkscape-font-specification:'Gill Sans MT Bold';text-align:start;letter-spacing:0px;text-anchor:start;fill:#fff8f8;fill-opacity:1"
     x="39.299999"
     y="21.417187"
     id="text1"><tspan
       sodipodi:role="line"
       id="tspan1"
       x="39.299999"
       y="21.417187"
       style="font-style:normal;font-variant:normal;font-weight:bold;font-stretch:normal;font-family:arial;-inkscape-font-specification:'arial Bold';letter-spacing:0px">Déployer sur Scalingo (beta)</tspan></text></svg>
