<?xml version="1.0" encoding="UTF-8" standalone="no"?>
<svg
   width="32"
   height="32"
   viewBox="0 0 32 32"
   fill="none"
   version="1.1"
   id="svg3"
   xmlns="http://www.w3.org/2000/svg"
   xmlns:svg="http://www.w3.org/2000/svg">
  <defs
     id="defs3" />
  <rect
     style="fill:#ffffff;stroke:none;stroke-width:3.6;fill-opacity:1"
     id="rect3"
     width="32"
     height="32"
     x="0"
     y="0" />
  <path
     fill-rule="evenodd"
     clip-rule="evenodd"
     d="M3.12743 6.09801C3 6.47022 3 6.93227 3 7.85636V9.82873C3 10.0135 3 10.106 3.02549 10.1804C3.07281 10.3186 3.18138 10.4272 3.3196 10.4745C3.39404 10.5 3.48645 10.5 3.67127 10.5H28.3287C28.5135 10.5 28.606 10.5 28.6804 10.4745C28.8186 10.4272 28.9272 10.3186 28.9745 10.1804C29 10.106 29 10.0135 29 9.82873V7.85636C29 6.93227 29 6.47022 28.8726 6.09801C28.6359 5.40692 28.0931 4.86405 27.402 4.62743C27.0298 4.5 26.5677 4.5 25.6436 4.5H6.35636C5.43227 4.5 4.97022 4.5 4.59801 4.62743C3.90692 4.86405 3.36405 5.40692 3.12743 6.09801ZM6.25 8.79999C6.94036 8.79999 7.5 8.24034 7.5 7.54999C7.5 6.85963 6.94036 6.29999 6.25 6.29999C5.55964 6.29999 5 6.85963 5 7.54999C5 8.24034 5.55964 8.79999 6.25 8.79999ZM11.5 7.54999C11.5 8.24034 10.9404 8.79999 10.25 8.79999C9.55964 8.79999 9 8.24034 9 7.54999C9 6.85963 9.55964 6.29999 10.25 6.29999C10.9404 6.29999 11.5 6.85963 11.5 7.54999ZM14.25 8.79999C14.9404 8.79999 15.5 8.24034 15.5 7.54999C15.5 6.85963 14.9404 6.29999 14.25 6.29999C13.5596 6.29999 13 6.85963 13 7.54999C13 8.24034 13.5596 8.79999 14.25 8.79999Z"
     fill="#D3343F"
     id="path1" />
  <path
     d="M3 12.9713C3 12.7865 3 12.6941 3.02549 12.6197C3.07281 12.4814 3.18138 12.3729 3.3196 12.3255C3.39404 12.3 3.48645 12.3 3.67127 12.3H28.3287C28.5135 12.3 28.606 12.3 28.6804 12.3255C28.8186 12.3729 28.9272 12.4814 28.9745 12.6197C29 12.6941 29 12.7865 29 12.9713V20.8233C29 20.9934 29 21.0785 28.9759 21.1231C28.9306 21.2067 28.8327 21.2469 28.7417 21.2192C28.6933 21.2044 28.6335 21.1439 28.5139 21.0228L24.0799 16.5326C23.6817 16.1253 23.1008 15.8 22.3794 15.8C21.7739 15.8 21.2083 16.0245 20.7681 16.4333L20.7562 16.4444L20.7444 16.4557C20.2295 16.9515 20.0416 17.5792 20.0294 18.128L19.8648 26.8821C19.8626 26.9974 19.8616 27.055 19.8449 27.1014C19.8139 27.1876 19.7453 27.2549 19.6586 27.2843C19.6119 27.3 19.5542 27.3 19.4389 27.3H6.35636C5.43227 27.3 4.97022 27.3 4.59801 27.1726C3.90692 26.936 3.36405 26.3931 3.12743 25.702C3 25.3298 3 24.8678 3 23.9437V12.9713Z"
     fill="#2020AE"
     id="path2" />
  <path
     d="M27.6081 28.5127C27.6667 28.3605 27.6589 28.1985 27.5847 28.0267L26.1915 24.7372L28.3632 24.8661C28.5544 24.8778 28.7067 24.829 28.8199 24.7197C28.9331 24.6104 28.9916 24.4757 28.9955 24.3157C29.0033 24.1557 28.9389 24.0093 28.8023 23.8766L22.7951 17.7933C22.6702 17.6644 22.5316 17.6 22.3794 17.6C22.231 17.6 22.1022 17.6508 21.9929 17.7523C21.8875 17.8538 21.8329 17.9923 21.829 18.168L21.7002 26.6753C21.6963 26.8743 21.7529 27.0285 21.87 27.1378C21.991 27.2471 22.1335 27.2998 22.2974 27.2959C22.4613 27.292 22.6077 27.2178 22.7365 27.0734L24.0847 25.5543L25.395 28.9284C25.4652 29.108 25.5726 29.2231 25.717 29.2739C25.8653 29.3285 26.0175 29.3246 26.1737 29.2621L27.2744 28.8347C27.4422 28.7723 27.5535 28.6649 27.6081 28.5127Z"
     fill="#2020AE"
     id="path3" />
</svg>
